<?xml version="1.0" encoding="utf-8"?>
<!-- Generator: Adobe Illustrator 16.0.0, SVG Export Plug-In . SVG Version: 6.00 Build 0)  -->
<!DOCTYPE svg PUBLIC "-//W3C//DTD SVG 1.1//EN" "http://www.w3.org/Graphics/SVG/1.1/DTD/svg11.dtd">
<svg version="1.1" id="图层_1" xmlns="http://www.w3.org/2000/svg" xmlns:xlink="http://www.w3.org/1999/xlink" x="0px" y="0px"
	 width="960px" height="540px" viewBox="0 0 960 540" enable-background="new 0 0 960 540" xml:space="preserve">
<rect fill="none" width="960" height="540"/>
<g id="开发">
	<rect fill="#FFFFFF" width="960" height="540"/>
	<path id="矩形_13" fill="#92D9F5" d="M688.481,385.335l38.184,38.184c12.888,12.887,12.888,33.781,0,46.669l0,0
		c-12.887,12.887-33.781,12.887-46.669,0l-38.184-38.184c-12.888-12.888-12.888-33.782,0-46.669l0,0
		C654.7,372.447,675.595,372.447,688.481,385.335z"/>
	<path id="矩形_15" fill="#92D9F5" d="M221.633,91.284L324.87,194.521c10.154,10.153,10.154,26.616,0,36.77l0,0
		c-10.153,10.153-26.616,10.153-36.77,0L184.863,128.053c-10.154-10.154-10.154-26.616,0-36.77l0,0
		C195.017,81.13,211.479,81.13,221.633,91.284z"/>
	<path id="矩形_16" fill="#92D9F5" d="M309.633,58.284L412.87,161.521c10.154,10.153,10.154,26.616,0,36.77l0,0
		c-10.153,10.153-26.616,10.153-36.77,0L272.863,95.053c-10.154-10.154-10.154-26.616,0-36.77l0,0
		C283.017,48.13,299.479,48.13,309.633,58.284z"/>
	<path id="矩形_14" fill="#92D9F5" d="M689.844,291.881l57.275,57.275c7.615,7.615,7.615,19.962,0,27.577l0,0
		c-7.615,7.615-19.962,7.615-27.577,0l-57.275-57.275c-7.615-7.615-7.615-19.962,0-27.577l0,0
		C669.882,284.266,682.229,284.266,689.844,291.881z"/>
	<circle id="椭圆_1" fill="#92D9F5" cx="480" cy="270" r="242"/>
	<g id="矩形_11" transform="translate(415 344)">
		<rect fill="#B6BDC6" width="130" height="93"/>
		<path fill="#3D3D63" d="M130,93H0V0h130V93z M20,73h90V20H20V73z"/>
	</g>
	<g id="矩形_9" transform="translate(296 100)">
		<path fill="#8BECEF" d="M40,0h288c22.092,0,40,17.909,40,40v196c0,22.092-17.908,40-40,40H40c-22.091,0-40-17.908-40-40V40
			C0,17.909,17.909,0,40,0z"/>
		<path fill="#3D3D63" d="M328,276H40c-22.056,0-40-17.944-40-40V40C0,17.944,17.944,0,40,0h288c22.056,0,40,17.944,40,40v196
			C368,258.056,350.056,276,328,276z M40,20c-11.028,0-20,8.972-20,20v196c0,11.028,8.972,20,20,20h288c11.028,0,20-8.972,20-20V40
			c0-11.028-8.972-20-20-20H40z"/>
	</g>
	<g id="矩形_10" transform="translate(296 286)">
		<path fill="#E5E5E5" d="M25.5,0.25l322.084-0.166l11.25,7.333L368,50c0,22.092-17.908,40-40,40H40C17.909,90,0,72.092,0,50V18.625
			l17.125-3.375L25.5,0.25z"/>
		<path fill="#3D3D63" d="M328,90H40C17.944,90,0,72.056,0,50V20C0,8.972,8.972,0,20,0h328c11.028,0,20,8.972,20,20v30
			C368,72.056,350.056,90,328,90z M20,20v30c0,11.028,8.972,20,20,20h288c11.028,0,20-8.972,20-20V20H20z"/>
	</g>
	<rect id="矩形_12" x="435" y="376" fill="#8F969E" width="90" height="20"/>
	<path fill="#3D3D63" d="M595,437H365c-5.523,0-10-4.478-10-10s4.477-10,10-10h230c5.522,0,10,4.478,10,10S600.522,437,595,437z"/>
	<path fill="#3D3D63" d="M556,463h-98c-2.761,0-5-2.238-5-5s2.239-5,5-5h98c2.762,0,5,2.238,5,5S558.762,463,556,463z"/>
	<path fill="#3D3D63" d="M589,487H480c-2.761,0-5-2.238-5-5s2.239-5,5-5h109c2.762,0,5,2.238,5,5S591.762,487,589,487z"/>
	<path fill="#3D3D63" d="M403,463h-67c-2.761,0-5-2.238-5-5s2.239-5,5-5h67c2.761,0,5,2.238,5,5S405.761,463,403,463z"/>
	<path fill="#3D3D63" d="M701,487h-56c-2.762,0-5-2.238-5-5s2.238-5,5-5h56c2.762,0,5,2.238,5,5S703.762,487,701,487z"/>
	<rect x="602" y="313" fill="#8F969E" width="42" height="8"/>
	<rect x="618" y="330" fill="#8F969E" width="26" height="8"/>
	<g id="组_2" transform="translate(0 -4)">
		<rect x="602" y="144" fill="#67B3FF" width="42" height="8"/>
		<rect x="618" y="161" fill="#67B3FF" width="26" height="8"/>
	</g>
	<g id="组_3" transform="translate(0 37)">
		<rect x="602" y="144" fill="#67B3FF" width="42" height="8"/>
		<rect x="618" y="161" fill="#67B3FF" width="26" height="8"/>
	</g>
	<g id="组_4" transform="translate(0 78)">
		<rect x="602" y="144" fill="#67B3FF" width="42" height="8"/>
		<rect x="618" y="161" fill="#67B3FF" width="26" height="8"/>
	</g>
	<rect x="602" y="263" fill="#67B3FF" width="42" height="8"/>
	<path fill="#3D3D63" d="M439,487H283c-2.761,0-5-2.238-5-5s2.239-5,5-5h156c2.761,0,5,2.238,5,5S441.761,487,439,487z"/>
	<path fill="#D4FEFF" d="M384,169c-2.047,0-4.095-0.781-5.657-2.343l-33-33c-3.125-3.124-3.125-8.189,0-11.313
		c3.124-3.124,8.189-3.124,11.313,0l33,33c3.125,3.124,3.125,8.189,0,11.313C388.095,168.219,386.047,169,384,169z"/>
	<path fill="#D4FEFF" d="M389,219c-2.047,0-4.095-0.781-5.657-2.343l-65-65c-3.125-3.124-3.125-8.189,0-11.313
		c3.124-3.124,8.189-3.124,11.313,0l65,65c3.125,3.124,3.125,8.189,0,11.313C393.095,218.219,391.047,219,389,219z"/>
	<path fill="#3D3D63" d="M431,463c-1.32,0-2.6-0.53-3.54-1.47c-0.93-0.931-1.46-2.211-1.46-3.53c0-1.32,0.53-2.601,1.46-3.54
		c0.93-0.93,2.22-1.46,3.54-1.46c1.32,0,2.61,0.53,3.54,1.46c0.93,0.939,1.46,2.22,1.46,3.54c0,1.319-0.53,2.6-1.46,3.53
		C433.61,462.47,432.32,463,431,463z"/>
	<path fill="#3D3D63" d="M621,487c-1.311,0-2.601-0.53-3.54-1.47c-0.93-0.931-1.46-2.211-1.46-3.53c0-1.32,0.53-2.601,1.46-3.54
		c0.93-0.93,2.22-1.46,3.54-1.46c1.319,0,2.609,0.53,3.54,1.46c0.93,0.939,1.46,2.229,1.46,3.54c0,1.319-0.53,2.6-1.46,3.53
		C623.6,486.47,622.31,487,621,487z"/>
	<circle id="椭圆_8" fill="#3A3644" cx="480" cy="331" r="10"/>
	<path fill="#92D9F5" d="M802,312.213c-0.512,0-1.023-0.195-1.414-0.586l-21.213-21.213c-0.781-0.781-0.781-2.047,0-2.828
		l21.213-21.213c0.781-0.781,2.047-0.781,2.828,0l21.213,21.213c0.781,0.781,0.781,2.047,0,2.828l-21.213,21.213
		C803.023,312.018,802.512,312.213,802,312.213z M783.615,289L802,307.385L820.385,289L802,270.615L783.615,289z"/>
	<path fill="#92D9F5" d="M228.101,218.9c-0.512,0-1.024-0.195-1.414-0.586l-9.899-9.899c-0.781-0.781-0.781-2.047,0-2.828
		l9.899-9.899c0.78-0.781,2.048-0.781,2.828,0l9.899,9.899c0.781,0.781,0.781,2.047,0,2.828l-9.899,9.899
		C229.125,218.705,228.613,218.9,228.101,218.9z M221.03,207l7.071,7.071l7.071-7.071l-7.071-7.071L221.03,207z"/>
	<path fill="#FFFFFF" d="M691,328.9c-0.53,0-1.039-0.211-1.414-0.586l-9.899-9.9c-0.781-0.781-0.781-2.047,0-2.828l9.899-9.899
		c0.781-0.781,2.047-0.781,2.828,0l9.899,9.899c0.781,0.781,0.781,2.047,0,2.828l-9.899,9.9C692.039,328.689,691.53,328.9,691,328.9
		z M683.929,317l7.071,7.072l7.071-7.072L691,309.929L683.929,317z"/>
	<path fill="#FFFFFF" d="M544,67.9c-0.512,0-1.023-0.195-1.414-0.586l-9.899-9.899c-0.781-0.781-0.781-2.047,0-2.828l9.899-9.899
		c0.781-0.781,2.047-0.781,2.828,0l9.899,9.899c0.781,0.781,0.781,2.047,0,2.828l-9.899,9.899C545.023,67.705,544.512,67.9,544,67.9
		z M536.929,56L544,63.071L551.071,56L544,48.93L536.929,56z"/>
	<g id="椭圆_9" transform="translate(176 391)">
		<circle fill="#FFFFFF" cx="27.5" cy="27.5" r="27.5"/>
		<path fill="#92D9F5" d="M27.5,55C12.336,55,0,42.663,0,27.5S12.336,0,27.5,0S55,12.337,55,27.5S42.664,55,27.5,55z M27.5,4
			C14.542,4,4,14.542,4,27.5S14.542,51,27.5,51S51,40.458,51,27.5S40.458,4,27.5,4z"/>
	</g>
	<g id="椭圆_10" transform="translate(194 100)">
		<circle fill="none" cx="13.5" cy="13.5" r="13.5"/>
		<path fill="#FFFFFF" d="M13.5,27C6.056,27,0,20.944,0,13.5S6.056,0,13.5,0S27,6.056,27,13.5S20.944,27,13.5,27z M13.5,4
			C8.262,4,4,8.262,4,13.5S8.262,23,13.5,23s9.5-4.262,9.5-9.5S18.738,4,13.5,4z"/>
	</g>
	<g id="椭圆_11" transform="translate(306 437)">
		<circle fill="none" cx="13.5" cy="13.5" r="13.5"/>
		<path fill="#FFFFFF" d="M13.5,27C6.056,27,0,20.944,0,13.5S6.056,0,13.5,0S27,6.056,27,13.5S20.944,27,13.5,27z M13.5,4
			C8.262,4,4,8.262,4,13.5S8.262,23,13.5,23s9.5-4.262,9.5-9.5S18.738,4,13.5,4z"/>
	</g>
	<g id="椭圆_12" transform="translate(438 89)">
		<circle fill="none" cx="9.5" cy="9.5" r="9.5"/>
		<path fill="#FFFFFF" d="M9.5,19C4.262,19,0,14.738,0,9.5S4.262,0,9.5,0S19,4.262,19,9.5S14.738,19,9.5,19z M9.5,4
			C6.467,4,4,6.467,4,9.5S6.467,15,9.5,15S15,12.533,15,9.5S12.533,4,9.5,4z"/>
	</g>
	<g id="椭圆_13" transform="translate(662 34)">
		<circle fill="none" cx="15" cy="15" r="15"/>
		<path fill="#92D9F5" d="M15,30C6.729,30,0,23.271,0,15S6.729,0,15,0s15,6.729,15,15S23.271,30,15,30z M15,4C8.935,4,4,8.935,4,15
			s4.935,11,11,11s11-4.935,11-11S21.065,4,15,4z"/>
	</g>
	<g id="椭圆_15" transform="translate(359 28)">
		<circle fill="none" cx="9" cy="9" r="9"/>
		<path fill="#92D9F5" d="M9,18c-4.962,0-9-4.038-9-9s4.038-9,9-9s9,4.038,9,9S13.962,18,9,18z M9,4C6.243,4,4,6.243,4,9
			s2.243,5,5,5s5-2.243,5-5S11.757,4,9,4z"/>
	</g>
	<g id="椭圆_14" transform="translate(692 185)">
		<circle fill="none" cx="15" cy="15" r="15"/>
		<path fill="#FFFFFF" d="M15,30C6.729,30,0,23.271,0,15S6.729,0,15,0s15,6.729,15,15S23.271,30,15,30z M15,4C8.935,4,4,8.935,4,15
			s4.935,11,11,11s11-4.935,11-11S21.065,4,15,4z"/>
	</g>
</g>
</svg>
